<?xml version="1.0" standalone="no"?>
<!DOCTYPE svg PUBLIC "-//W3C//DTD SVG 20010904//EN"
 "http://www.w3.org/TR/2001/REC-SVG-20010904/DTD/svg10.dtd">
<svg version="1.0" xmlns="http://www.w3.org/2000/svg"
 width="93.000000pt" height="89.000000pt" viewBox="0 0 93.000000 89.000000"
 preserveAspectRatio="xMidYMid meet">

<g transform="translate(0.000000,89.000000) scale(0.100000,-0.100000)"
fill="#000000" stroke="none">
<path d="M395 825 c-19 -20 -44 -53 -55 -75 -22 -43 -70 -96 -70 -77 0 7 9 32
20 56 23 50 23 51 11 51 -18 0 -51 -86 -51 -133 0 -25 -5 -49 -11 -53 -9 -5
-10 9 -7 50 3 31 1 56 -3 56 -13 0 -19 -31 -20 -103 -1 -40 -5 -83 -9 -97 -8
-25 -8 -25 -11 5 -1 17 -3 37 -5 45 -1 8 -2 20 -3 25 -1 6 -6 3 -11 -6 -6 -11
-6 -34 0 -65 6 -27 12 -65 15 -84 l5 -35 -14 35 c-11 27 -15 31 -21 18 -8 -19
32 -118 48 -118 7 0 1 -7 -11 -16 -12 -8 -22 -24 -22 -34 0 -23 46 -79 74 -89
17 -7 19 -15 17 -65 -2 -40 1 -56 8 -51 6 3 11 28 11 54 0 45 3 51 45 86 43
34 46 40 44 80 -2 35 3 49 29 80 17 21 28 43 25 48 -3 6 -12 3 -19 -7 -12 -17
-13 -16 -24 3 -9 18 -8 21 7 21 20 0 80 86 68 98 -3 4 -10 0 -15 -8 -5 -8 -16
-24 -24 -35 -15 -20 -15 -20 -16 2 0 12 5 25 11 29 21 12 69 98 69 122 0 13
-4 20 -10 17 -5 -3 -10 -13 -10 -21 0 -8 -12 -33 -27 -55 -25 -38 -27 -40 -35
-19 -10 26 -3 41 16 34 14 -6 56 80 56 115 0 29 -20 27 -20 -1 -1 -13 -6 -36
-13 -52 -11 -25 -14 -27 -26 -13 -11 14 -10 20 7 42 24 31 56 120 49 138 -3 6
-10 -1 -16 -18 -6 -16 -19 -47 -28 -68 -15 -35 -18 -37 -25 -18 -9 26 -16 26
-41 4 -20 -18 -20 -18 -1 16 10 19 36 52 57 73 20 21 37 40 37 43 0 14 -23 1
-55 -30z m-25 -160 c-22 -27 -31 -15 -13 18 13 25 18 28 21 14 2 -10 -2 -24
-8 -32z m-53 -32 c-9 -55 -27 -66 -27 -17 0 41 5 54 23 54 5 0 7 -16 4 -37z
m72 -19 c-14 -17 -59 -37 -66 -30 -9 9 38 46 58 46 19 0 20 -2 8 -16z m-99
-98 l-1 -31 -19 24 c-11 13 -20 35 -20 49 0 24 0 25 20 7 12 -11 20 -30 20
-49z m90 26 c0 -17 -36 -42 -60 -42 -14 0 -12 34 2 48 19 19 58 15 58 -6z
m-121 -56 c18 -19 21 -30 15 -60 l-6 -37 -24 33 c-23 30 -33 88 -16 88 5 0 19
-11 31 -24z m115 -5 c10 -16 -5 -41 -35 -56 -38 -20 -41 -19 -37 12 4 35 58
67 72 44z m-4 -103 c0 -19 -53 -78 -71 -78 -5 0 -9 18 -9 40 0 36 4 41 33 54
37 15 47 12 47 -16z m-125 6 c19 -12 25 -25 25 -50 0 -19 -5 -34 -10 -34 -14
0 -50 60 -50 83 0 21 4 21 35 1z m83 -156 c-32 -25 -38 -23 -38 15 0 27 5 35
28 43 24 9 27 7 30 -15 3 -17 -4 -30 -20 -43z m-70 52 c7 0 12 -15 12 -40 0
-28 -4 -40 -14 -40 -14 0 -66 54 -66 69 0 15 15 22 35 17 11 -3 26 -6 33 -6z"/>
<path d="M779 728 c0 -51 -2 -58 -10 -39 -7 19 -12 22 -21 13 -20 -20 -28 -14
-28 19 0 19 -4 28 -11 24 -6 -4 -8 -22 -4 -44 5 -28 2 -41 -9 -51 -9 -7 -16
-22 -16 -34 0 -12 -9 -27 -20 -34 -11 -7 -20 -23 -20 -36 0 -13 -7 -26 -15
-30 -8 -3 -15 -17 -15 -30 0 -15 -8 -30 -20 -36 -11 -6 -23 -22 -26 -35 -3
-14 -12 -25 -20 -25 -7 0 -17 -12 -20 -27 -4 -16 -16 -34 -26 -41 -10 -7 -18
-25 -18 -41 0 -17 -7 -31 -16 -35 -12 -5 -15 -19 -13 -63 l3 -56 -58 -54 c-38
-35 -51 -53 -40 -53 10 0 42 25 71 55 46 47 59 55 91 55 38 0 82 22 82 42 0 5
11 19 25 30 14 11 25 25 25 32 0 7 9 21 20 31 11 10 20 26 20 35 0 10 9 24 20
31 11 8 21 25 22 39 2 14 11 31 21 38 10 8 17 27 17 45 0 18 7 41 15 51 8 10
12 22 10 27 -3 4 0 20 7 34 10 23 10 28 -5 36 -18 11 -24 59 -7 59 6 0 10 26
10 59 0 33 -4 63 -10 66 -6 4 -10 -18 -11 -57z m-19 -83 c0 -14 -4 -25 -10
-25 -5 0 -10 11 -10 25 0 14 5 25 10 25 6 0 10 -11 10 -25z m-40 -39 c0 -14
-4 -28 -10 -31 -6 -4 -10 7 -10 24 0 17 5 31 10 31 6 0 10 -11 10 -24z m70
-25 c0 -5 -13 -14 -30 -20 -35 -12 -41 1 -7 17 28 14 37 14 37 3z m-97 -56 c0
-15 -6 -32 -12 -38 -7 -7 -11 -7 -10 -2 1 6 -1 22 -5 37 -9 31 1 55 16 40 6
-6 11 -22 11 -37z m75 -7 c-5 -13 -49 -40 -56 -33 -2 2 -1 13 3 24 4 14 15 21
32 21 15 0 23 -5 21 -12z m-114 -44 c9 -34 -2 -73 -15 -53 -11 18 -12 79 0 79
5 0 12 -12 15 -26z m96 -24 c0 -21 -27 -40 -60 -40 -18 0 -19 3 -10 21 10 18
40 36 63 38 4 1 7 -8 7 -19z m-132 -46 c10 -20 9 -29 -2 -45 -13 -19 -14 -18
-20 12 -12 63 0 82 22 33z m89 -22 c20 -13 -6 -41 -44 -48 -38 -7 -42 3 -13
34 22 23 37 27 57 14z m-127 -37 c8 -20 6 -32 -7 -52 -16 -23 -17 -24 -24 -7
-4 11 -8 34 -8 52 -1 40 25 44 39 7z m87 -48 c-5 -16 -53 -39 -73 -35 -13 3
-13 6 0 23 15 22 80 33 73 12z m-138 -23 c9 -21 9 -30 -1 -41 -11 -14 -14 -13
-19 8 -17 58 -2 81 20 33z m96 -45 c-10 -15 -53 -29 -70 -23 -12 5 -13 9 -4
20 14 17 84 20 74 3z m-136 -50 c-14 -28 -19 -23 -19 19 1 34 2 36 15 18 10
-13 11 -24 4 -37z m91 -6 c9 -8 -25 -23 -53 -23 -25 0 -27 2 -17 20 8 16 17
19 38 14 15 -4 29 -9 32 -11z"/>
<path d="M822 687 c-14 -40 -15 -47 -3 -47 8 0 31 52 31 71 0 21 -17 6 -28
-24z"/>
<path d="M640 635 c0 -19 5 -35 10 -35 6 0 10 16 10 35 0 19 -4 35 -10 35 -5
0 -10 -16 -10 -35z"/>
<path d="M567 593 c-11 -10 -8 -113 3 -113 6 0 10 27 10 60 0 61 -1 65 -13 53z"/>
<path d="M828 575 c-18 -24 -23 -45 -12 -45 10 0 43 44 44 58 0 19 -13 14 -32
-13z"/>
<path d="M507 432 c-5 -57 -2 -71 9 -59 12 11 17 104 6 111 -6 3 -12 -17 -15
-52z"/>
<path d="M773 390 c-25 -31 -39 -60 -29 -60 11 0 65 64 66 78 0 19 -13 13 -37
-18z"/>
<path d="M460 360 c0 -22 5 -40 10 -40 6 0 10 18 10 40 0 22 -4 40 -10 40 -5
0 -10 -18 -10 -40z"/>
<path d="M705 240 c-16 -16 -37 -32 -47 -36 -21 -6 -24 -24 -5 -24 16 0 97 68
97 81 0 17 -16 9 -45 -21z"/>
</g>
</svg>
